<?xml version="1.0" encoding="utf-8"?>
<!-- Generator: Adobe Illustrator 19.0.0, SVG Export Plug-In . SVG Version: 6.00 Build 0)  -->
<svg version="1.1" xmlns="http://www.w3.org/2000/svg" xmlns:xlink="http://www.w3.org/1999/xlink" x="0px" y="0px"
	 viewBox="0 0 552 228.7" style="enable-background:new 0 0 552 228.7;" xml:space="preserve">
<style type="text/css">
	.st0{fill:#FFFFFF;}
	.st1{display:none;fill:#101832;}
</style>
<g id="Layer_2">
</g>
<g id="Layer_3">
</g>
<g id="Layer_1">
	<g id="XMLID_131_">
		<path id="XMLID_3_" class="st0" d="M68.9,192.3H21.1c-2.2,0-4.3-0.8-5.8-2.2h-1.1l-1.1-3.3c-0.4-1.2-0.4-2.3-0.4-2.9
			c0-2.4,0.9-4.5,2.4-6l37.2-51H21.1c-4.7,0-8.5-3.8-8.5-8.5c0-4.8,3.7-8.5,8.5-8.5h47.4c1.1-0.2,3.2,0.2,5.1,1.3l1,0.7
			c2.8,2.8,3.6,6.1,2.5,9.1c-0.2,1.2-1.1,2.6-2.4,3.7l-36.9,50.7h31.3c4.8,0,8.5,3.7,8.5,8.5S73.7,192.3,68.9,192.3z M21.1,119.6
			L21.1,119.6L21.1,119.6z"/>
	</g>
	<g id="XMLID_127_">
		<path id="XMLID_5_" class="st0" d="M119.8,194.1c-21.8,0-39.6-18.6-39.6-41.5S97.9,111,119.8,111s39.6,18.6,39.6,41.5
			S141.6,194.1,119.8,194.1z M119.8,127.8c-12.3,0-22.6,11.3-22.6,24.7c0,13.5,10.1,24.6,22.6,24.6c12.5,0,22.6-11,22.6-24.6
			C142.4,139.1,132,127.8,119.8,127.8z"/>
	</g>
	<g id="XMLID_123_">
		<path id="XMLID_7_" class="st0" d="M221.2,213.4c-32.6,0-59.2-27.9-59.2-62.2c0-34.3,26.6-62.2,59.2-62.2s59.2,27.9,59.2,62.2
			C280.4,185.4,253.9,213.4,221.2,213.4z M221.2,105.3c-22.9,0-42.2,21-42.2,45.8c0,25.1,18.9,45.6,42.2,45.6
			c23.3,0,42.2-20.4,42.2-45.6C263.5,126.3,244.1,105.3,221.2,105.3z"/>
	</g>
	<g id="XMLID_91_">
		<path id="XMLID_8_" class="st0" d="M292.6,205.9h2.9l4.7,16h-4l-0.9-3.4h-6.2l-1.8,3.4h-3.9L292.6,205.9z M293.3,210.5l-2.6,5h3.9
			L293.3,210.5z"/>
		<path id="XMLID_9_" class="st0" d="M304.3,205.9h3.5l-1.8,12.8h6.5l-0.5,3.3H302L304.3,205.9z"/>
		<path id="XMLID_10_" class="st0" d="M316.3,205.9h3.5l-2.2,16H314L316.3,205.9z"/>
		<path id="XMLID_11_" class="st0" d="M321.4,205.9h4l2.5,10.5h0l5.5-10.5h3.8l-8.9,16h-2.8L321.4,205.9z"/>
		<path id="XMLID_12_" class="st0" d="M338.9,205.9h3.5l-2.2,16h-3.5L338.9,205.9z"/>
		<path id="XMLID_13_" class="st0" d="M345.6,205.9h4.8l5.2,11.1h0l1.6-11.1h3.5l-2.2,16H354l-5.4-11.4h0l-1.6,11.4h-3.5
			L345.6,205.9z"/>
		<path id="XMLID_14_" class="st0" d="M376.5,220.8c-1.1,0.5-2.3,0.9-3.4,1.2s-2.3,0.4-3.5,0.4c-1.3,0-2.4-0.2-3.4-0.6
			c-1-0.4-1.8-1-2.5-1.7s-1.1-1.6-1.4-2.7c-0.3-1-0.3-2.2-0.2-3.5c0.2-1.3,0.6-2.4,1.1-3.5c0.6-1,1.3-1.9,2.2-2.7
			c0.9-0.7,1.9-1.3,3-1.7c1.1-0.4,2.3-0.6,3.6-0.6c1.3,0,2.4,0.2,3.5,0.5c1,0.3,1.9,0.8,2.6,1.6l-2.9,2.7c-0.4-0.5-0.9-0.9-1.5-1.1
			c-0.6-0.3-1.3-0.4-2.2-0.4c-0.7,0-1.5,0.1-2.1,0.4c-0.6,0.3-1.2,0.6-1.7,1.1c-0.5,0.5-0.9,1-1.2,1.6s-0.5,1.3-0.6,2.1
			c-0.1,0.8-0.1,1.4,0.1,2.1c0.1,0.6,0.4,1.2,0.8,1.6s0.8,0.8,1.4,1.1c0.6,0.3,1.2,0.4,2,0.4c0.8,0,1.4-0.1,2-0.3
			c0.6-0.2,1.1-0.4,1.4-0.5l0.4-2.6h-2.9l0.5-3.3h6.3L376.5,220.8z"/>
		<path id="XMLID_15_" class="st0" d="M386.1,205.9h2.4l9.3,13.3h0v-13.3h1.9v16h-2.4l-9.3-13.3h0v13.3h-1.9V205.9z"/>
		<path id="XMLID_16_" class="st0" d="M403.7,205.9h10.1v1.8h-8.2v5h7.6v1.8h-7.6v5.7h8.6v1.8h-10.5V205.9z"/>
		<path id="XMLID_17_" class="st0" d="M427.9,207.6h-5.3v14.3h-1.9v-14.3h-5.3v-1.8h12.5V207.6z"/>
		<path id="XMLID_18_" class="st0" d="M428.3,205.9h2.1l3.6,13.3h0l3.9-13.3h2.1l3.9,13.3h0.1l3.7-13.3h2l-4.7,16H443l-4-13.6h0
			l-4,13.6H433L428.3,205.9z"/>
		<path id="XMLID_19_" class="st0" d="M459.4,222.3c-1.2,0-2.3-0.2-3.4-0.6c-1-0.4-1.9-1-2.6-1.8c-0.7-0.7-1.3-1.6-1.8-2.7
			c-0.4-1-0.6-2.2-0.6-3.4c0-1.2,0.2-2.3,0.6-3.4c0.4-1,1-1.9,1.8-2.7c0.7-0.7,1.6-1.3,2.6-1.8c1-0.4,2.1-0.6,3.4-0.6
			c1.2,0,2.3,0.2,3.4,0.6c1,0.4,1.9,1,2.6,1.8s1.3,1.6,1.7,2.7c0.4,1,0.6,2.2,0.6,3.4c0,1.2-0.2,2.3-0.6,3.4c-0.4,1-1,1.9-1.7,2.7
			c-0.7,0.7-1.6,1.3-2.6,1.8C461.7,222.1,460.6,222.3,459.4,222.3z M459.4,220.5c0.9,0,1.8-0.2,2.6-0.5c0.8-0.3,1.4-0.8,2-1.4
			c0.6-0.6,1-1.3,1.3-2.1c0.3-0.8,0.5-1.7,0.5-2.6c0-0.9-0.2-1.8-0.5-2.6c-0.3-0.8-0.7-1.5-1.3-2.1c-0.6-0.6-1.2-1.1-2-1.4
			c-0.8-0.3-1.6-0.5-2.6-0.5c-0.9,0-1.8,0.2-2.6,0.5c-0.8,0.3-1.4,0.8-2,1.4c-0.6,0.6-1,1.3-1.3,2.1c-0.3,0.8-0.5,1.7-0.5,2.6
			c0,0.9,0.2,1.8,0.5,2.6c0.3,0.8,0.7,1.5,1.3,2.1c0.6,0.6,1.2,1.1,2,1.4C457.6,220.4,458.4,220.5,459.4,220.5z"/>
		<path id="XMLID_34_" class="st0" d="M470.8,205.9h4.1c0.8,0,1.5,0,2.3,0.1s1.4,0.3,2.1,0.6c0.6,0.3,1.1,0.7,1.5,1.3
			c0.4,0.6,0.6,1.4,0.6,2.4c0,1.2-0.4,2.1-1.1,2.9s-1.7,1.2-2.9,1.4l4.6,7.4h-2.3l-4.3-7.2h-2.4v7.2h-1.9V205.9z M472.7,212.9h1.7
			c0.5,0,1.1,0,1.6,0c0.6,0,1.1-0.1,1.6-0.3c0.5-0.2,0.9-0.4,1.2-0.8c0.3-0.4,0.5-0.9,0.5-1.5c0-0.6-0.1-1-0.3-1.4
			c-0.2-0.3-0.5-0.6-0.9-0.8c-0.4-0.2-0.8-0.3-1.3-0.4c-0.5-0.1-0.9-0.1-1.4-0.1h-2.7V212.9z"/>
		<path id="XMLID_37_" class="st0" d="M484.6,205.9h1.9v6.9h0.3l7.3-6.9h2.7l-7.9,7.3l8.3,8.7h-2.8l-7.6-8.2h-0.3v8.2h-1.9V205.9z"
			/>
	</g>
	<g id="XMLID_1_">
		<path id="XMLID_39_" class="st0" d="M536.5,71.2c-0.1-0.2-0.3-0.4-0.4-0.5c0-0.2-0.2-0.4-0.4-0.6c0,0,0,0,0,0
			c2.3-3.6-20.6-41.6-33.5-42.7l-4-5c-2.6-5.4-2.4-16.5-2.4-16.5s-1.6-2.7-4.5-0.2c-1.6,1.4-2.1,3.7-2.1,5.5l-5.4-6.7
			c0,0-3.6-5.1-13.3,0.7c-10.9,6.4-33,16-33,16s-4.1,1.8-5,5.5c-0.5,2.3,0.2,4.6,2.3,7L448.4,50c-7.5,14.5,20.1,36.7,24.9,34.7
			c0.5-0.2,1.5-0.7,2.7-1.4l15.5,18.7c0.2,0.2,1.8,1.6,5.2,1.6c1.9,0,4.4-0.4,7.7-1.7c2.6-1,6.8-3.2,11.3-5.6
			c-3.4,50.2-30.2,68.5-39,73.2l0,0c-13.1,7.6-30.6,8.5-40.1-0.2l41.6-31.4c1.8-1.4,3-3.4,3.3-5.6c0.3-2.1-0.2-4.2-1.5-5.8l-0.6-0.8
			c-14-15.9-36.9-18.6-53.2-6.4c-16.3,12.3-20,35.1-8.9,55.5c4.7,8.5,13.7,14.9,24.9,17.5c3.8,0.9,7.7,1.3,11.7,1.3
			c1.6,0,3.2-0.2,4.9-0.4c0,0,0,0.1,0,0.1c0.4-0.1,0.8-0.2,1.3-0.2c2.2-0.3,4.5-0.7,6.7-1.2c0.8-0.2,1.5-0.3,2.3-0.5
			c0.8-0.2,1.7-0.5,2.5-0.8c38.5-11.4,53.9-50.4,62.5-104.7c2.3-1.3,3.8-2.2,4-2.4l0.3-0.2l0.4-0.3
			C538.9,82.9,541.1,77.7,536.5,71.2z M436.3,132.5c3.8-2.9,8.3-4.3,12.8-4.3c3.6,0,7.3,0.9,10.7,2.7l-31.7,23.9
			C426.4,146.4,429.4,137.8,436.3,132.5z M450.2,47.4c-0.1,0.1-0.1,0.1-0.2,0.2l-13.1-15.8l0,0c-1.4-1.7-2-3.2-1.7-4.6
			c0.5-2.2,3.3-3.5,3.3-3.5c0.2-0.1,22.2-9.6,33.3-16.1c7.3-4.3,9.5-1.5,9.6-1.4l17.1,21.1c-0.3,0.2-0.5,0.4-0.7,0.7
			C488.9,29.5,461,35.5,450.2,47.4z M536.2,81.3c-3.2,1.9-25.2,14.9-32.9,18c-7,2.8-9.7,0.8-9.8,0.8l-15.1-18.2
			c11.8-6.9,38.9-22.5,51.9-14.6c1.1,1.7,2.4,3.6,3.8,5.6C537.3,77.3,536.6,80.4,536.2,81.3z"/>
		<path id="XMLID_63_" class="st0" d="M446.2,24c-1.2-0.4-2.4-0.3-3.5,0.2c-1.1,0.5-2,1.5-2.4,2.7c-0.4,1.2-0.3,2.4,0.2,3.5l0,0
			c0.8,1.6,2.5,2.6,4.2,2.6c0.7,0,1.4-0.1,2-0.5c1.1-0.5,1.9-1.5,2.3-2.6c0.4-1.2,0.3-2.4-0.2-3.5C448.3,25.3,447.3,24.4,446.2,24z
			 M446.1,28.9c-0.1,0.4-0.4,0.7-0.8,0.9c-0.8,0.4-1.7,0-2.1-0.7c-0.2-0.4-0.2-0.8-0.1-1.2c0.1-0.4,0.4-0.7,0.8-0.9
			c0.4-0.2,0.8-0.2,1.2-0.1c0.4,0.1,0.7,0.4,0.9,0.8C446.2,28.1,446.2,28.5,446.1,28.9z"/>
		<circle id="XMLID_64_" class="st0" cx="451.9" cy="23.7" r="1.8"/>
		<path id="XMLID_65_" class="st0" d="M370.7,112.6c-9.6,0-18.7,4.2-25.1,11.3c-6.3-7.1-15.4-11.3-25-11.3c-6.2,0-12.2,1.7-17.3,4.9
			c-1.3-2.9-4.2-4.9-7.6-4.9c-4.5,0-8.2,3.7-8.2,8.2l0.4,25.2V184c0,4.5,3.7,8.2,8.2,8.2c4.6,0,8.3-3.7,8.3-8.2l-0.4-38.1
			c0-9.3,7.5-16.8,16.7-16.8c9.2,0,16.6,7.5,16.6,16.8l0.2,38.1c0,4.5,3.7,8.2,8.2,8.2c4.6,0,8.3-3.7,8.3-8.2l0.1-38.1
			c0-9.1,7.6-16.8,16.7-16.8c9,0,16.5,7.6,16.8,16.9V184c0,4.5,3.7,8.2,8.2,8.2c4.6,0,8.3-3.7,8.3-8.2v-38.1
			C404.1,127.5,389.1,112.6,370.7,112.6z"/>
	</g>
	<path id="XMLID_42_" class="st1" d="M435.8,32.7l56.7,68.3c0,0,3,2.9,11.4-0.4c8.4-3.3,33.4-18.3,33.4-18.3s2.3-4-2-10.3
		c-4.3-6.3-8.1-11.8-8.1-11.8l-39.6-9.1c0,0-7.8-4.1-0.6-11.8c6.8-6,7.3-6.8,13.3-11.9L482.5,5.2c0,0-2.7-4-11.4,1.1
		C460,12.9,438,22.4,438,22.4S430,25.9,435.8,32.7z"/>
</g>
</svg>
